# xmcd CD database file
#
# Track frame offsets:
#	150
#	19790
#	40342
#
# Disc length: 797 seconds
#
# Revision: 7
# Processed by: cddbd v1.5.2PL0 Copyright (c) Steve Scherf et al.
# Submitted via: CDex 1.82
#
DISCID=1c031b03
DTITLE=Maki Goto - Genshoku GAL Hade ni Yukube!
DYEAR=2003
DGENRE=Jpop
TTITLE0=Genshoku GAL Hade ni Yukube!
TTITLE1=Koibito Boshuuchuu
TTITLE2=Genshoku GAL Hade ni Yukube! (Instrumental)
EXTD=YEAR: 2003
EXTT0=
EXTT1=
EXTT2=
PLAYORDER=
